<svg xmlns="http://www.w3.org/2000/svg" xml:space="preserve" baseProfile="tiny" overflow="visible" viewBox="0 0 1024 1024"><linearGradient id="a" x1="16.474" x2="1007.526" y1="116.856" y2="907.144" gradientUnits="userSpaceOnUse"><stop offset="0" style="stop-color:#26305c"/><stop offset="1" style="stop-color:#000726"/></linearGradient><path fill="url(#a)" d="M914.5 989.2c-268.3 46.4-536.7 46.4-805 0-34.6-6.2-68.5-40.1-74.7-74.7-46.4-268.3-46.4-536.7 0-805C41 74.9 74.9 41 109.5 34.8c268.3-46.4 536.7-46.4 805 0 34.6 6.2 68.5 40.1 74.7 74.7 46.4 268.3 46.4 536.7 0 805-6.2 34.6-40.1 68.5-74.7 74.7"/><path fill="#10b981" d="M31.8 489.4V268.9h78.8c15.1 0 27.7 2.8 37.7 8.3 10 5.6 17.4 12.9 22.4 21.9 4.9 9 7.4 18.9 7.4 29.6v9.5c0 10.7-2.5 20.7-7.6 29.9-5 9.2-12.6 16.6-22.5 22.2-10 5.6-22.4 8.3-37.3 8.3H58.2v90.7H31.8zm26.4-115.3h49.1q44.1 0 44.1-37.8v-5.7c0-11.1-3.6-20.1-10.9-26.9-7.2-6.8-18.3-10.2-33.2-10.2H58.2zm169.2 115.3V268.9H361v24.6H253.9v73.1h105.2v24.6H253.9v73.7h109v24.6H227.4zm190 0V268.9h78.8c15.1 0 27.7 2.8 37.7 8.3 10 5.6 17.4 12.9 22.4 21.9 4.9 9 7.4 18.9 7.4 29.6v9.5c0 10.7-2.5 20.7-7.6 29.9-5 9.2-12.6 16.6-22.5 22.2-10 5.6-22.4 8.3-37.3 8.3H444v90.7h-26.6zm26.5-115.3H493q44.1 0 44.1-37.8v-5.7c0-11.1-3.6-20.1-10.9-26.9-7.2-6.8-18.3-10.2-33.2-10.2h-49.1zm144.3 115.3L655 268.9h49.8l66.8 220.5h-28.4l-16.1-54.8h-94.5l-16.1 54.8zm51.7-79.4h80l-38.1-129.8H678zm198.8 83.8c-5.9 0-11-2.2-15.4-6.6s-6.6-9.6-6.6-15.4q0-9.15 6.6-15.6c4.4-4.3 9.6-6.5 15.4-6.5 6.1 0 11.3 2.2 15.6 6.5s6.5 9.5 6.5 15.6c0 5.9-2.2 11-6.5 15.4q-6.6 6.6-15.6 6.6M28 750.7v-24.9h18.9V554.7H28v-24.6h72.5c27.1 0 47 6.6 59.7 19.7s19.1 33.9 19.1 62.2v56.7c0 28.4-6.4 49.1-19.1 62.2s-32.6 19.7-59.7 19.7H28zm45.4-24.6h23.3c12.8 0 23.4-1.7 31.7-5.2s14.4-9.5 18.4-18.1 6-20.6 6-35.9V614c0-15.3-2-27.3-6-35.9s-10.1-14.7-18.4-18.1c-8.3-3.5-18.9-5.2-31.7-5.2H73.4zm154 24.6V530.2H361v24.6H253.9v73.1h105.2v24.6H253.9v73.7h109v24.6H227.4zm234.1 0-62.4-220.5h28.4l57.7 209.2h3.8l57.7-209.2h28.4l-62.4 220.5zm123.7 4.4c-5.9 0-11-2.2-15.4-6.6s-6.6-9.6-6.6-15.4q0-9.15 6.6-15.6c4.4-4.3 9.6-6.5 15.4-6.5 6.1 0 11.3 2.2 15.6 6.5s6.5 9.5 6.5 15.6c0 5.9-2.2 11-6.5 15.4q-6.45 6.6-15.6 6.6m146.8 0c-10.1 0-20.2-2.4-30.2-7.1-10.1-4.7-17.9-11.8-23.3-21.3h-3.8v23.9h-24.6V530.2h24.6V619h3.8c5.5-9.5 13-16.6 22.7-21.6 9.7-4.9 20.2-7.4 31.5-7.4 12.8 0 24.7 3.1 35.6 9.3s19.7 15.2 26.3 27.1 9.9 26.2 9.9 43v6.3c0 17-3.3 31.4-9.8 43.2s-15.3 20.7-26.3 26.9c-11.1 6.2-23.2 9.3-36.4 9.3m-5.1-23.3c14.9 0 27.4-5 37.3-15.1 10-10.1 15-23.7 15-41v-6.3c0-11.1-2.3-20.9-6.9-29.3s-10.9-15-18.7-19.7c-7.9-4.7-16.8-7.1-26.6-7.1-9.7 0-18.4 2.5-26.3 7.4s-14.2 11.7-18.9 20.3-7.1 18.5-7.1 29.6v3.8c0 11.6 2.3 21.6 6.9 30.2s10.9 15.3 18.9 20q12 7.2 26.4 7.2m109 18.9V728h35.9V617.1h-32.1v-22.7h56.7v20.8h3.8c4-8.6 9.7-15 17.2-19.1s15.8-6.1 25-6.1c15.5 0 28.2 5.1 38 15.4s15 25.3 15.6 45.1l-25.8 3.8c0-14.5-3.5-24.9-10.4-31.3q-10.35-9.6-25.5-9.6c-12.8 0-22.3 4.7-28.5 14q-9.3 13.95-9.3 34.5V728h39.7v22.7z"/></svg>